<mxfile host="app.diagrams.net" modified="2024-03-06T18:49:05.449Z" agent="Mozilla/5.0 (Windows NT 10.0; Win64; x64) AppleWebKit/537.36 (KHTML, like Gecko) Chrome/122.0.0.0 Safari/537.36" etag="akdF4OT1GCMkR6Al57zT" version="24.0.2" type="github">
  <diagram id="kgpKYQtTHZ0yAKxKKP6v" name="Page-1">
    <mxGraphModel dx="989" dy="541" grid="1" gridSize="10" guides="1" tooltips="1" connect="1" arrows="1" fold="1" page="1" pageScale="1" pageWidth="850" pageHeight="1100" math="0" shadow="0">
      <root>
        <mxCell id="0" />
        <mxCell id="1" parent="0" />
        <mxCell id="3UYFEpioPOCQP9LVinf9-38" value="" style="rounded=0;whiteSpace=wrap;html=1;fillColor=none;fontFamily=Comic Sans MS;" vertex="1" parent="1">
          <mxGeometry x="90" y="380" width="670" height="100" as="geometry" />
        </mxCell>
        <mxCell id="3UYFEpioPOCQP9LVinf9-40" value="Worker" style="rounded=0;fillColor=none;fontStyle=1;direction=west;horizontal=0;fontFamily=Comic Sans MS;" vertex="1" parent="1">
          <mxGeometry x="90" y="380" width="40" height="100" as="geometry" />
        </mxCell>
        <mxCell id="3UYFEpioPOCQP9LVinf9-48" value="" style="rounded=0;whiteSpace=wrap;html=1;fillColor=none;movable=1;resizable=1;rotatable=1;deletable=1;editable=1;locked=0;connectable=1;fontFamily=Comic Sans MS;" vertex="1" parent="1">
          <mxGeometry x="90" y="210" width="670" height="170" as="geometry" />
        </mxCell>
        <mxCell id="3UYFEpioPOCQP9LVinf9-49" value="Wrokaround" style="rounded=0;fillColor=none;fontStyle=1;direction=west;horizontal=0;movable=1;resizable=1;rotatable=1;deletable=1;editable=1;locked=0;connectable=1;fontFamily=Comic Sans MS;" vertex="1" parent="1">
          <mxGeometry x="90" y="210" width="40" height="170" as="geometry" />
        </mxCell>
        <mxCell id="3UYFEpioPOCQP9LVinf9-52" value="" style="rounded=0;whiteSpace=wrap;html=1;fillColor=none;movable=1;resizable=1;rotatable=1;deletable=1;editable=1;locked=0;connectable=1;fontFamily=Comic Sans MS;" vertex="1" parent="1">
          <mxGeometry x="90" y="100" width="670" height="110" as="geometry" />
        </mxCell>
        <mxCell id="3UYFEpioPOCQP9LVinf9-53" value="Clientes" style="rounded=0;fillColor=none;fontStyle=1;direction=west;horizontal=0;movable=1;resizable=1;rotatable=1;deletable=1;editable=1;locked=0;connectable=1;fontFamily=Comic Sans MS;" vertex="1" parent="1">
          <mxGeometry x="90" y="100" width="40" height="110" as="geometry" />
        </mxCell>
        <mxCell id="3UYFEpioPOCQP9LVinf9-56" value="Processo de Cadastro WorkAround" style="rounded=0;fillColor=none;fontStyle=1;fontFamily=Comic Sans MS;" vertex="1" parent="1">
          <mxGeometry x="90" y="50" width="670" height="50" as="geometry" />
        </mxCell>
        <mxCell id="3UYFEpioPOCQP9LVinf9-67" style="edgeStyle=orthogonalEdgeStyle;rounded=1;orthogonalLoop=1;jettySize=auto;html=1;entryX=0.5;entryY=1;entryDx=0;entryDy=0;curved=0;fontFamily=Comic Sans MS;" edge="1" parent="1" source="3UYFEpioPOCQP9LVinf9-58" target="3UYFEpioPOCQP9LVinf9-64">
          <mxGeometry relative="1" as="geometry" />
        </mxCell>
        <mxCell id="3UYFEpioPOCQP9LVinf9-58" value="Worker deseja utilizar o app" style="ellipse;whiteSpace=wrap;html=1;aspect=fixed;fontFamily=Comic Sans MS;" vertex="1" parent="1">
          <mxGeometry x="140" y="397.5" width="65" height="65" as="geometry" />
        </mxCell>
        <mxCell id="3UYFEpioPOCQP9LVinf9-69" style="edgeStyle=orthogonalEdgeStyle;rounded=0;orthogonalLoop=1;jettySize=auto;html=1;entryX=0;entryY=0.5;entryDx=0;entryDy=0;fontFamily=Comic Sans MS;" edge="1" parent="1" source="3UYFEpioPOCQP9LVinf9-61" target="3UYFEpioPOCQP9LVinf9-64">
          <mxGeometry relative="1" as="geometry" />
        </mxCell>
        <mxCell id="3UYFEpioPOCQP9LVinf9-61" value="" style="ellipse;whiteSpace=wrap;html=1;aspect=fixed;fontFamily=Comic Sans MS;" vertex="1" parent="1">
          <mxGeometry x="140" y="262.5" width="65" height="65" as="geometry" />
        </mxCell>
        <mxCell id="3UYFEpioPOCQP9LVinf9-77" style="edgeStyle=orthogonalEdgeStyle;rounded=0;orthogonalLoop=1;jettySize=auto;html=1;exitX=0.75;exitY=0;exitDx=0;exitDy=0;entryX=0.5;entryY=1;entryDx=0;entryDy=0;fontFamily=Comic Sans MS;" edge="1" parent="1" source="3UYFEpioPOCQP9LVinf9-64" target="3UYFEpioPOCQP9LVinf9-75">
          <mxGeometry relative="1" as="geometry" />
        </mxCell>
        <mxCell id="3UYFEpioPOCQP9LVinf9-78" style="edgeStyle=orthogonalEdgeStyle;rounded=0;orthogonalLoop=1;jettySize=auto;html=1;exitX=0.75;exitY=1;exitDx=0;exitDy=0;entryX=0.5;entryY=0;entryDx=0;entryDy=0;fontFamily=Comic Sans MS;" edge="1" parent="1" source="3UYFEpioPOCQP9LVinf9-64" target="3UYFEpioPOCQP9LVinf9-76">
          <mxGeometry relative="1" as="geometry" />
        </mxCell>
        <mxCell id="3UYFEpioPOCQP9LVinf9-64" value="Enviar a tela de cadastro aos usuários" style="rounded=1;whiteSpace=wrap;html=1;fontFamily=Comic Sans MS;" vertex="1" parent="1">
          <mxGeometry x="240" y="265" width="120" height="60" as="geometry" />
        </mxCell>
        <mxCell id="3UYFEpioPOCQP9LVinf9-72" style="edgeStyle=orthogonalEdgeStyle;rounded=0;orthogonalLoop=1;jettySize=auto;html=1;exitX=1;exitY=0.5;exitDx=0;exitDy=0;entryX=0.5;entryY=0;entryDx=0;entryDy=0;fontFamily=Comic Sans MS;" edge="1" parent="1" source="3UYFEpioPOCQP9LVinf9-71" target="3UYFEpioPOCQP9LVinf9-64">
          <mxGeometry relative="1" as="geometry" />
        </mxCell>
        <mxCell id="3UYFEpioPOCQP9LVinf9-71" value="Cliente deseja utilizar o app" style="ellipse;whiteSpace=wrap;html=1;aspect=fixed;fontFamily=Comic Sans MS;" vertex="1" parent="1">
          <mxGeometry x="140" y="122.5" width="65" height="65" as="geometry" />
        </mxCell>
        <mxCell id="3UYFEpioPOCQP9LVinf9-83" style="edgeStyle=orthogonalEdgeStyle;rounded=0;orthogonalLoop=1;jettySize=auto;html=1;exitX=1;exitY=0.5;exitDx=0;exitDy=0;entryX=0.5;entryY=0;entryDx=0;entryDy=0;fontFamily=Comic Sans MS;" edge="1" parent="1" source="3UYFEpioPOCQP9LVinf9-75" target="3UYFEpioPOCQP9LVinf9-82">
          <mxGeometry relative="1" as="geometry">
            <mxPoint x="440.0000000000002" y="152.5" as="sourcePoint" />
            <mxPoint x="470.0000000000002" y="262.5" as="targetPoint" />
            <Array as="points">
              <mxPoint x="570" y="153" />
            </Array>
          </mxGeometry>
        </mxCell>
        <mxCell id="3UYFEpioPOCQP9LVinf9-76" value="&lt;br&gt;&lt;span style=&quot;color: rgb(0, 0, 0); font-size: 12px; font-style: normal; font-variant-ligatures: normal; font-variant-caps: normal; font-weight: 400; letter-spacing: normal; orphans: 2; text-indent: 0px; text-transform: none; widows: 2; word-spacing: 0px; -webkit-text-stroke-width: 0px; white-space: normal; background-color: rgb(251, 251, 251); text-decoration-thickness: initial; text-decoration-style: initial; text-decoration-color: initial; float: none; display: inline !important;&quot;&gt;Responder ao questionário de cadastro&lt;/span&gt;&lt;div&gt;&lt;br&gt;&lt;/div&gt;" style="shape=parallelogram;perimeter=parallelogramPerimeter;whiteSpace=wrap;html=1;fixedSize=1;align=center;fontFamily=Comic Sans MS;" vertex="1" parent="1">
          <mxGeometry x="380" y="400" width="120" height="60" as="geometry" />
        </mxCell>
        <mxCell id="3UYFEpioPOCQP9LVinf9-90" style="edgeStyle=orthogonalEdgeStyle;rounded=0;orthogonalLoop=1;jettySize=auto;html=1;entryX=0.5;entryY=1;entryDx=0;entryDy=0;fontFamily=Comic Sans MS;" edge="1" parent="1" source="3UYFEpioPOCQP9LVinf9-82" target="3UYFEpioPOCQP9LVinf9-89">
          <mxGeometry relative="1" as="geometry" />
        </mxCell>
        <mxCell id="3UYFEpioPOCQP9LVinf9-93" style="edgeStyle=orthogonalEdgeStyle;rounded=0;orthogonalLoop=1;jettySize=auto;html=1;entryX=0.5;entryY=0;entryDx=0;entryDy=0;fontFamily=Comic Sans MS;" edge="1" parent="1" source="3UYFEpioPOCQP9LVinf9-82" target="3UYFEpioPOCQP9LVinf9-92">
          <mxGeometry relative="1" as="geometry" />
        </mxCell>
        <mxCell id="3UYFEpioPOCQP9LVinf9-82" value="Receber as informações e cadastrar o usuário no sistema" style="rounded=1;whiteSpace=wrap;html=1;fontFamily=Comic Sans MS;" vertex="1" parent="1">
          <mxGeometry x="510" y="265" width="120" height="60" as="geometry" />
        </mxCell>
        <mxCell id="3UYFEpioPOCQP9LVinf9-84" style="edgeStyle=orthogonalEdgeStyle;rounded=0;orthogonalLoop=1;jettySize=auto;html=1;exitX=1;exitY=0.5;exitDx=0;exitDy=0;entryX=0.5;entryY=1;entryDx=0;entryDy=0;fontFamily=Comic Sans MS;" edge="1" parent="1" source="3UYFEpioPOCQP9LVinf9-76" target="3UYFEpioPOCQP9LVinf9-82">
          <mxGeometry relative="1" as="geometry">
            <mxPoint x="430.0000000000002" y="427.5200000000001" as="sourcePoint" />
            <mxPoint x="469.9599999999998" y="327.5" as="targetPoint" />
          </mxGeometry>
        </mxCell>
        <mxCell id="3UYFEpioPOCQP9LVinf9-85" value="" style="edgeStyle=orthogonalEdgeStyle;rounded=0;orthogonalLoop=1;jettySize=auto;html=1;exitX=1;exitY=0.5;exitDx=0;exitDy=0;entryX=0.5;entryY=0;entryDx=0;entryDy=0;fontFamily=Comic Sans MS;" edge="1" parent="1" target="3UYFEpioPOCQP9LVinf9-75">
          <mxGeometry relative="1" as="geometry">
            <mxPoint x="440.0000000000002" y="152.5" as="sourcePoint" />
            <mxPoint x="660" y="263" as="targetPoint" />
            <Array as="points" />
          </mxGeometry>
        </mxCell>
        <mxCell id="3UYFEpioPOCQP9LVinf9-75" value="Responder ao questionário de cadastro" style="shape=parallelogram;perimeter=parallelogramPerimeter;whiteSpace=wrap;html=1;fixedSize=1;fontFamily=Comic Sans MS;" vertex="1" parent="1">
          <mxGeometry x="380" y="122.5" width="120" height="60" as="geometry" />
        </mxCell>
        <mxCell id="3UYFEpioPOCQP9LVinf9-89" value="Iniciar a utilização do App" style="ellipse;whiteSpace=wrap;html=1;aspect=fixed;fontFamily=Comic Sans MS;" vertex="1" parent="1">
          <mxGeometry x="670" y="122.5" width="65" height="65" as="geometry" />
        </mxCell>
        <mxCell id="3UYFEpioPOCQP9LVinf9-92" value="Iniciar a utilização do App" style="ellipse;whiteSpace=wrap;html=1;aspect=fixed;fontFamily=Comic Sans MS;" vertex="1" parent="1">
          <mxGeometry x="670" y="397.5" width="65" height="65" as="geometry" />
        </mxCell>
      </root>
    </mxGraphModel>
  </diagram>
</mxfile>
